<mxfile host="app.diagrams.net" agent="Mozilla/5.0 (Windows NT 10.0; Win64; x64) AppleWebKit/537.36 (KHTML, like Gecko) Chrome/129.0.0.0 Safari/537.36" version="24.7.17">
  <diagram name="第 1 页" id="flei85SfKq-1xsbpoYld">
    <mxGraphModel dx="1302" dy="682" grid="0" gridSize="10" guides="1" tooltips="1" connect="1" arrows="1" fold="1" page="1" pageScale="1" pageWidth="827" pageHeight="1169" math="0" shadow="0">
      <root>
        <mxCell id="0" />
        <mxCell id="1" parent="0" />
        <mxCell id="xIEAOk9AQyB0dI7Puxch-1" value="..." style="ellipse;whiteSpace=wrap;html=1;aspect=fixed;labelBackgroundColor=none;fillColor=#dae8fc;strokeColor=#6c8ebf;sketch=1;curveFitting=1;jiggle=2;fontFamily=Times New Roman;fontStyle=1;fontSize=16;fontColor=#0066CC;" vertex="1" parent="1">
          <mxGeometry x="360" y="1040" width="80" height="80" as="geometry" />
        </mxCell>
        <mxCell id="xIEAOk9AQyB0dI7Puxch-2" value="D：张三" style="ellipse;whiteSpace=wrap;html=1;aspect=fixed;labelBackgroundColor=none;fillColor=#dae8fc;strokeColor=#6c8ebf;sketch=1;curveFitting=1;jiggle=2;fontFamily=Times New Roman;fontStyle=1;fontSize=16;fontColor=#0066CC;" vertex="1" parent="1">
          <mxGeometry x="360" y="920" width="80" height="80" as="geometry" />
        </mxCell>
        <mxCell id="xIEAOk9AQyB0dI7Puxch-3" value="C：我" style="ellipse;whiteSpace=wrap;html=1;aspect=fixed;labelBackgroundColor=none;fillColor=#f8cecc;strokeColor=#b85450;sketch=1;curveFitting=1;jiggle=2;fontFamily=Times New Roman;fontStyle=1;fontSize=16;fontColor=#CC0000;" vertex="1" parent="1">
          <mxGeometry x="360" y="800" width="80" height="80" as="geometry" />
        </mxCell>
        <mxCell id="xIEAOk9AQyB0dI7Puxch-4" value="B：李四" style="ellipse;whiteSpace=wrap;html=1;aspect=fixed;labelBackgroundColor=none;fillColor=#dae8fc;strokeColor=#6c8ebf;sketch=1;curveFitting=1;jiggle=2;fontFamily=Times New Roman;fontStyle=1;fontSize=16;fontColor=#0066CC;" vertex="1" parent="1">
          <mxGeometry x="360" y="680" width="80" height="80" as="geometry" />
        </mxCell>
        <mxCell id="xIEAOk9AQyB0dI7Puxch-6" style="edgeStyle=orthogonalEdgeStyle;rounded=0;sketch=1;hachureGap=4;jiggle=2;curveFitting=1;orthogonalLoop=1;jettySize=auto;html=1;exitX=0.5;exitY=1;exitDx=0;exitDy=0;fontFamily=Architects Daughter;fontSource=https%3A%2F%2Ffonts.googleapis.com%2Fcss%3Ffamily%3DArchitects%2BDaughter;strokeColor=#1A1A1A;fontColor=#000000;" edge="1" parent="1" source="xIEAOk9AQyB0dI7Puxch-5" target="xIEAOk9AQyB0dI7Puxch-4">
          <mxGeometry relative="1" as="geometry" />
        </mxCell>
        <mxCell id="xIEAOk9AQyB0dI7Puxch-5" value="A：我" style="ellipse;whiteSpace=wrap;html=1;aspect=fixed;labelBackgroundColor=none;fillColor=#f8cecc;strokeColor=#b85450;sketch=1;curveFitting=1;jiggle=2;fontFamily=Times New Roman;fontStyle=1;fontSize=16;fontColor=#CC0000;" vertex="1" parent="1">
          <mxGeometry x="360" y="560" width="80" height="80" as="geometry" />
        </mxCell>
        <mxCell id="xIEAOk9AQyB0dI7Puxch-11" style="edgeStyle=orthogonalEdgeStyle;rounded=0;sketch=1;hachureGap=4;jiggle=2;curveFitting=1;orthogonalLoop=1;jettySize=auto;html=1;exitX=0.5;exitY=1;exitDx=0;exitDy=0;fontFamily=Architects Daughter;fontSource=https%3A%2F%2Ffonts.googleapis.com%2Fcss%3Ffamily%3DArchitects%2BDaughter;strokeColor=#1A1A1A;" edge="1" parent="1">
          <mxGeometry relative="1" as="geometry">
            <mxPoint x="399.74" y="760" as="sourcePoint" />
            <mxPoint x="399.74" y="800" as="targetPoint" />
          </mxGeometry>
        </mxCell>
        <mxCell id="xIEAOk9AQyB0dI7Puxch-12" style="edgeStyle=orthogonalEdgeStyle;rounded=0;sketch=1;hachureGap=4;jiggle=2;curveFitting=1;orthogonalLoop=1;jettySize=auto;html=1;exitX=0.5;exitY=1;exitDx=0;exitDy=0;fontFamily=Architects Daughter;fontSource=https%3A%2F%2Ffonts.googleapis.com%2Fcss%3Ffamily%3DArchitects%2BDaughter;strokeColor=#1A1A1A;" edge="1" parent="1">
          <mxGeometry relative="1" as="geometry">
            <mxPoint x="399.74" y="880" as="sourcePoint" />
            <mxPoint x="399.74" y="920" as="targetPoint" />
          </mxGeometry>
        </mxCell>
        <mxCell id="xIEAOk9AQyB0dI7Puxch-13" style="edgeStyle=orthogonalEdgeStyle;rounded=0;sketch=1;hachureGap=4;jiggle=2;curveFitting=1;orthogonalLoop=1;jettySize=auto;html=1;exitX=0.5;exitY=1;exitDx=0;exitDy=0;fontFamily=Architects Daughter;fontSource=https%3A%2F%2Ffonts.googleapis.com%2Fcss%3Ffamily%3DArchitects%2BDaughter;strokeColor=#1A1A1A;" edge="1" parent="1">
          <mxGeometry relative="1" as="geometry">
            <mxPoint x="399.74" y="1000" as="sourcePoint" />
            <mxPoint x="399.74" y="1040" as="targetPoint" />
          </mxGeometry>
        </mxCell>
      </root>
    </mxGraphModel>
  </diagram>
</mxfile>
